<svg width="65" height="64" viewBox="0 0 65 64" fill="none" xmlns="http://www.w3.org/2000/svg">
<rect x="2" y="1.5" width="61" height="61" rx="30.5" stroke="#F4F4F4" stroke-width="3"/>
<path fill-rule="evenodd" clip-rule="evenodd" d="M31.32 17.513C30.6633 18.3697 29.9233 19.693 28.8467 21.623L28.3017 22.6013L28.2033 22.778C27.7033 23.678 27.2783 24.4413 26.5967 24.958C25.9083 25.4813 25.0683 25.6697 24.0917 25.8897L23.9017 25.933L22.8417 26.173C20.75 26.6463 19.325 26.9713 18.3517 27.3563C17.4 27.7297 17.2 28.038 17.1233 28.283C17.0417 28.543 17.04 28.9413 17.6067 29.8447C18.185 30.7613 19.16 31.9047 20.5833 33.5713L21.3067 34.4163L21.4317 34.5613C22.1033 35.3447 22.6633 35.998 22.92 36.8247C23.175 37.6463 23.09 38.508 22.9867 39.5547L22.97 39.7497L22.86 40.878C22.6433 43.098 22.5 44.628 22.5483 45.728C22.5983 46.828 22.83 47.1313 23.015 47.2713C23.1783 47.3963 23.4817 47.533 24.47 47.2497C25.475 46.963 26.8117 46.3513 28.77 45.4497L29.7633 44.993L29.945 44.9097C30.8533 44.488 31.64 44.1247 32.5 44.1247C33.36 44.1247 34.1467 44.488 35.055 44.908C35.1139 44.9369 35.175 44.9647 35.2383 44.9913L36.23 45.4497C38.1883 46.3513 39.525 46.963 40.53 47.2497C41.5183 47.533 41.8217 47.3963 41.985 47.2713C42.17 47.1313 42.4017 46.8263 42.4517 45.728C42.5017 44.628 42.355 43.098 42.14 40.878L42.03 39.7497L42.0133 39.5547C41.91 38.508 41.825 37.6463 42.08 36.8247C42.3367 35.998 42.8967 35.3447 43.5683 34.5613L43.6933 34.4163L44.4167 33.5713C45.84 31.9047 46.815 30.7613 47.3917 29.8447C47.96 28.9413 47.9583 28.5447 47.8767 28.283C47.8 28.038 47.6 27.7297 46.6483 27.3563C45.6733 26.9713 44.25 26.6463 42.1583 26.173L41.0983 25.933L40.9083 25.8897C39.9317 25.6697 39.0917 25.4813 38.4033 24.958C37.72 24.4413 37.2983 23.6797 36.7967 22.778L36.7 22.6013L36.1533 21.623C35.0767 19.693 34.3367 18.3697 33.68 17.513C33.0233 16.6563 32.69 16.583 32.5 16.583C32.31 16.583 31.975 16.6563 31.32 17.513ZM29.3367 15.993C30.1283 14.9563 31.11 14.083 32.5 14.083C33.89 14.083 34.87 14.9563 35.665 15.993C36.445 17.013 37.2733 18.498 38.285 20.313L38.8833 21.3847C39.5367 22.558 39.705 22.808 39.915 22.968C40.115 23.1197 40.3767 23.2063 41.6483 23.4947L42.815 23.758C44.775 24.2013 46.39 24.5663 47.565 25.0297C48.785 25.5113 49.8533 26.2197 50.265 27.5413C50.6717 28.8497 50.215 30.053 49.5083 31.1747C48.8217 32.2663 47.725 33.5497 46.385 35.1163L45.5933 36.0413C44.7317 37.048 44.5517 37.2947 44.4667 37.5663C44.3817 37.8447 44.3883 38.1663 44.52 39.508L44.6383 40.738C44.8417 42.8313 45.0067 44.538 44.9483 45.838C44.89 47.163 44.59 48.433 43.4983 49.263C42.385 50.1063 41.09 50.013 39.84 49.653C38.6283 49.3063 37.1183 48.6113 35.285 47.7663L34.1917 47.263C32.995 46.713 32.74 46.6247 32.5 46.6247C32.26 46.6247 32.005 46.713 30.8083 47.263L29.7167 47.7663C27.8817 48.6113 26.3717 49.3063 25.16 49.653C23.91 50.0113 22.615 50.1063 21.5033 49.263C20.41 48.433 20.11 47.163 20.0517 45.8397C19.9933 44.5397 20.1583 42.8313 20.3617 40.7397L20.4817 39.508C20.6117 38.1647 20.6183 37.8447 20.5317 37.5663C20.4483 37.2947 20.2683 37.0497 19.4067 36.0413L18.615 35.1163C17.2767 33.5497 16.18 32.2663 15.4933 31.1763C14.785 30.053 14.3283 28.8497 14.735 27.5413C15.1467 26.2197 16.215 25.5113 17.435 25.0297C18.61 24.5663 20.225 24.2013 22.185 23.758L22.29 23.7347L23.35 23.4947C24.6233 23.2063 24.8833 23.1197 25.085 22.9663C25.295 22.808 25.4633 22.558 26.1183 21.3847L26.715 20.313C27.7267 18.4963 28.555 17.013 29.335 15.993" fill="#F4F4F4"/>
</svg>
