<svg width="65" height="64" viewBox="0 0 65 64" fill="none" xmlns="http://www.w3.org/2000/svg">
<rect x="2" y="1.5" width="61" height="61" rx="30.5" stroke="#F4F4F4" stroke-width="3"/>
<path d="M37.5 30.3334V30.3501M21.1217 25.9634C20.3907 25.4016 19.8292 24.6486 19.4994 23.7876C19.1696 22.9267 19.0843 21.9913 19.2529 21.0849C19.4214 20.1784 19.8373 19.3363 20.4546 18.6514C21.0719 17.9666 21.8665 17.4658 22.7506 17.2043C23.6347 16.9428 24.5739 16.9309 25.4643 17.1698C26.3548 17.4088 27.1618 17.8892 27.7963 18.5582C28.4308 19.2271 28.8679 20.0584 29.0595 20.9603C29.251 21.8621 29.1895 22.7993 28.8817 23.6684" stroke="#F4F4F4" stroke-width="2" stroke-linecap="round" stroke-linejoin="round"/>
<path d="M39.1667 18.667V25.0053C41.2293 26.199 42.7996 28.0878 43.5967 30.3337H45.8317C46.2737 30.3337 46.6976 30.5093 47.0102 30.8218C47.3227 31.1344 47.4983 31.5583 47.4983 32.0003V35.3337C47.4983 35.7757 47.3227 36.1996 47.0102 36.5122C46.6976 36.8247 46.2737 37.0003 45.8317 37.0003H43.595C43.035 38.5837 42.0833 40.0003 40.8317 41.122V44.5003C40.8317 45.1634 40.5683 45.7993 40.0994 46.2681C39.6306 46.7369 38.9947 47.0003 38.3317 47.0003C37.6686 47.0003 37.0327 46.7369 36.5639 46.2681C36.0951 45.7993 35.8317 45.1634 35.8317 44.5003V43.5287C35.2809 43.6212 34.7234 43.6675 34.165 43.667H27.4983C26.9399 43.6675 26.3824 43.6212 25.8317 43.5287V44.5003C25.8317 45.1634 25.5683 45.7993 25.0994 46.2681C24.6306 46.7369 23.9947 47.0003 23.3317 47.0003C22.6686 47.0003 22.0327 46.7369 21.5639 46.2681C21.0951 45.7993 20.8317 45.1634 20.8317 44.5003V41.122C19.3216 39.7719 18.2571 37.9951 17.7791 36.0268C17.3011 34.0584 17.4322 31.9913 18.1549 30.099C18.8776 28.2068 20.1579 26.5786 21.8264 25.43C23.4948 24.2815 25.4728 23.6667 27.4983 23.667H31.665L39.1667 18.667Z" stroke="#F4F4F4" stroke-width="2" stroke-linecap="round" stroke-linejoin="round"/>
</svg>
