<svg width="18" height="19" viewBox="0 0 18 19" fill="none" xmlns="http://www.w3.org/2000/svg">
<path fill-rule="evenodd" clip-rule="evenodd" d="M1 4.28571C1 3.67951 1.24082 3.09812 1.66947 2.66947C2.09812 2.24082 2.67951 2 3.28571 2H4.33105C4.98629 2 5.55771 2.44648 5.71695 3.0819L6.55886 6.45181C6.62657 6.72458 6.61255 7.01125 6.51853 7.27611C6.42451 7.54097 6.25464 7.77231 6.0301 7.94133L5.04495 8.68038C4.9421 8.75733 4.92 8.8701 4.94895 8.94857C5.37918 10.1179 6.05828 11.1797 6.93928 12.0607C7.82028 12.9417 8.88215 13.6208 10.0514 14.051C10.1299 14.08 10.2419 14.0579 10.3196 13.955L11.0587 12.9699C11.2277 12.7454 11.459 12.5755 11.7239 12.4815C11.9888 12.3875 12.2754 12.3734 12.5482 12.4411L15.9181 13.283C16.5535 13.4423 17 14.0137 17 14.6697V15.7143C17 16.3205 16.7592 16.9019 16.3305 17.3305C15.9019 17.7592 15.3205 18 14.7143 18H13C6.37295 18 1 12.627 1 6V4.28571Z" fill="#272530"/>
</svg>
