<svg width="108" height="107" viewBox="0 0 108 107" fill="none" xmlns="http://www.w3.org/2000/svg">
<g opacity="0.5">
<path d="M22.7917 93.625C20.3396 93.625 18.2412 92.7527 16.4965 91.008C14.7518 89.2633 13.878 87.1634 13.875 84.7083V22.2917C13.875 19.8396 14.7488 17.7412 16.4965 15.9965C18.2442 14.2518 20.3426 13.378 22.7917 13.375H85.2083C87.6604 13.375 89.7603 14.2488 91.508 15.9965C93.2556 17.7442 94.128 19.8426 94.125 22.2917V84.7083C94.125 87.1604 93.2527 89.2603 91.508 91.008C89.7633 92.7556 87.6634 93.628 85.2083 93.625H22.7917ZM22.7917 84.7083H85.2083V22.2917H22.7917V84.7083ZM31.7083 75.7917H76.2917C77.1833 75.7917 77.8521 75.383 78.2979 74.5656C78.7438 73.7483 78.6694 72.9681 78.075 72.225L65.8146 55.8406C65.3688 55.2462 64.7743 54.949 64.0312 54.949C63.2882 54.949 62.6938 55.2462 62.2479 55.8406L50.6562 71.3333L42.4083 60.299C41.9625 59.7045 41.3681 59.4073 40.625 59.4073C39.8819 59.4073 39.2875 59.7045 38.8417 60.299L29.925 72.225C29.3306 72.9681 29.2563 73.7483 29.7021 74.5656C30.1479 75.383 30.8167 75.7917 31.7083 75.7917Z" fill="#272530"/>
</g>
</svg>
