<svg width="65" height="64" viewBox="0 0 65 64" fill="none" xmlns="http://www.w3.org/2000/svg">
<rect x="2" y="1.5" width="61" height="61" rx="30.5" stroke="#F4F4F4" stroke-width="3"/>
<path fill-rule="evenodd" clip-rule="evenodd" d="M14.5833 23.667C14.5833 23.3355 14.715 23.0175 14.9494 22.7831C15.1839 22.5487 15.5018 22.417 15.8333 22.417H29.1667C29.4982 22.417 29.8161 22.5487 30.0505 22.7831C30.285 23.0175 30.4167 23.3355 30.4167 23.667C30.4167 23.9985 30.285 24.3165 30.0505 24.5509C29.8161 24.7853 29.4982 24.917 29.1667 24.917H15.8333C15.5018 24.917 15.1839 24.7853 14.9494 24.5509C14.715 24.3165 14.5833 23.9985 14.5833 23.667ZM40.8333 24.917C39.9031 24.917 38.982 25.1002 38.1227 25.4562C37.2633 25.8121 36.4824 26.3339 35.8247 26.9917C35.1669 27.6494 34.6452 28.4303 34.2892 29.2897C33.9332 30.149 33.75 31.0701 33.75 32.0003C33.75 32.9305 33.9332 33.8516 34.2892 34.711C34.6452 35.5704 35.1669 36.3513 35.8247 37.009C36.4824 37.6667 37.2633 38.1885 38.1227 38.5445C38.982 38.9004 39.9031 39.0837 40.8333 39.0837C42.7119 39.0837 44.5136 38.3374 45.842 37.009C47.1704 35.6806 47.9167 33.8789 47.9167 32.0003C47.9167 30.1217 47.1704 28.32 45.842 26.9917C44.5136 25.6633 42.7119 24.917 40.8333 24.917ZM31.25 32.0003C31.25 30.7418 31.4979 29.4956 31.9795 28.3329C32.4611 27.1702 33.167 26.1138 34.0569 25.2239C34.9468 24.334 36.0032 23.6281 37.1659 23.1465C38.3286 22.6649 39.5748 22.417 40.8333 22.417C42.0918 22.417 43.338 22.6649 44.5007 23.1465C45.6634 23.6281 46.7199 24.334 47.6098 25.2239C48.4997 26.1138 49.2056 27.1702 49.6872 28.3329C50.1688 29.4956 50.4167 30.7418 50.4167 32.0003C50.4167 34.542 49.407 36.9795 47.6098 38.7768C45.8125 40.574 43.375 41.5837 40.8333 41.5837C38.2917 41.5837 35.8541 40.574 34.0569 38.7768C32.2597 36.9795 31.25 34.542 31.25 32.0003ZM40.8333 27.417C41.1648 27.417 41.4828 27.5487 41.7172 27.7831C41.9516 28.0175 42.0833 28.3355 42.0833 28.667V31.277L43.445 32.8487C43.5525 32.9728 43.6344 33.1168 43.6862 33.2726C43.738 33.4284 43.7586 33.5928 43.7469 33.7566C43.7351 33.9203 43.6912 34.0801 43.6177 34.2269C43.5441 34.3737 43.4424 34.5045 43.3183 34.612C43.1942 34.7195 43.0502 34.8014 42.8944 34.8532C42.7386 34.905 42.5742 34.9256 42.4104 34.9139C42.2467 34.9021 42.0869 34.8582 41.9401 34.7847C41.7933 34.7111 41.6625 34.6094 41.555 34.4853L39.8883 32.562C39.692 32.3352 39.5837 32.0453 39.5833 31.7453V28.667C39.5833 28.3355 39.715 28.0175 39.9494 27.7831C40.1839 27.5487 40.5018 27.417 40.8333 27.417ZM14.5833 32.0003C14.5833 31.6688 14.715 31.3509 14.9494 31.1164C15.1839 30.882 15.5018 30.7503 15.8333 30.7503H25.8333C26.1648 30.7503 26.4828 30.882 26.7172 31.1164C26.9516 31.3509 27.0833 31.6688 27.0833 32.0003C27.0833 32.3318 26.9516 32.6498 26.7172 32.8842C26.4828 33.1186 26.1648 33.2503 25.8333 33.2503H15.8333C15.5018 33.2503 15.1839 33.1186 14.9494 32.8842C14.715 32.6498 14.5833 32.3318 14.5833 32.0003ZM14.5833 40.3337C14.5833 40.0021 14.715 39.6842 14.9494 39.4498C15.1839 39.2154 15.5018 39.0837 15.8333 39.0837H29.1667C29.4982 39.0837 29.8161 39.2154 30.0505 39.4498C30.285 39.6842 30.4167 40.0021 30.4167 40.3337C30.4167 40.6652 30.285 40.9831 30.0505 41.2175C29.8161 41.452 29.4982 41.5837 29.1667 41.5837H15.8333C15.5018 41.5837 15.1839 41.452 14.9494 41.2175C14.715 40.9831 14.5833 40.6652 14.5833 40.3337Z" fill="#F4F4F4"/>
</svg>
