<svg width="65" height="64" viewBox="0 0 65 64" fill="none" xmlns="http://www.w3.org/2000/svg">
<rect x="2" y="1.5" width="61" height="61" rx="30.5" stroke="#F4F4F4" stroke-width="3"/>
<path d="M15.8333 17V15.75C15.5018 15.75 15.1839 15.8817 14.9494 16.1161C14.715 16.3505 14.5833 16.6685 14.5833 17H15.8333ZM34.1667 17H35.4167C35.4167 16.6685 35.285 16.3505 35.0505 16.1161C34.8161 15.8817 34.4982 15.75 34.1667 15.75V17ZM34.1667 27V25.75C33.8351 25.75 33.5172 25.8817 33.2828 26.1161C33.0484 26.3505 32.9167 26.6685 32.9167 27H34.1667ZM15.8333 18.25H34.1667V15.75H15.8333V18.25ZM32.9167 17V43.6667H35.4167V17H32.9167ZM17.0833 40.3333V17H14.5833V40.3333H17.0833ZM34.1667 28.25H42.5V25.75H34.1667V28.25ZM47.9167 33.6667V40.3333H50.4167V33.6667H47.9167ZM35.4167 43.6667V27H32.9167V43.6667H35.4167ZM43.9733 45.14C43.7799 45.3335 43.5502 45.487 43.2974 45.5917C43.0446 45.6965 42.7736 45.7504 42.5 45.7504C42.2264 45.7504 41.9554 45.6965 41.7026 45.5917C41.4498 45.487 41.2201 45.3335 41.0267 45.14L39.26 46.9067C40.1195 47.7662 41.2853 48.249 42.5008 48.249C43.7164 48.249 44.8821 47.7662 45.7417 46.9067L43.9733 45.14ZM41.0267 42.1933C41.2201 41.9998 41.4498 41.8463 41.7026 41.7416C41.9554 41.6369 42.2264 41.5829 42.5 41.5829C42.7736 41.5829 43.0446 41.6369 43.2974 41.7416C43.5502 41.8463 43.7799 41.9998 43.9733 42.1933L45.74 40.4267C44.8805 39.5672 43.7147 39.0843 42.4992 39.0843C41.2836 39.0843 40.1179 39.5672 39.2583 40.4267L41.0267 42.1933ZM23.9733 45.14C23.7799 45.3335 23.5502 45.487 23.2974 45.5917C23.0446 45.6965 22.7736 45.7504 22.5 45.7504C22.2264 45.7504 21.9554 45.6965 21.7026 45.5917C21.4498 45.487 21.2201 45.3335 21.0267 45.14L19.26 46.9067C20.1195 47.7662 21.2853 48.249 22.5008 48.249C23.7164 48.249 24.8821 47.7662 25.7417 46.9067L23.9733 45.14ZM21.0267 42.1933C21.2201 41.9998 21.4498 41.8463 21.7026 41.7416C21.9554 41.6369 22.2264 41.5829 22.5 41.5829C22.7736 41.5829 23.0446 41.6369 23.2974 41.7416C23.5502 41.8463 23.7799 41.9998 23.9733 42.1933L25.74 40.4267C24.8805 39.5672 23.7147 39.0843 22.4992 39.0843C21.2836 39.0843 20.1179 39.5672 19.2583 40.4267L21.0267 42.1933ZM43.9733 42.1933C44.38 42.6 44.5833 43.1317 44.5833 43.6667H47.0833C47.0833 42.495 46.635 41.32 45.7417 40.425L43.9733 42.1933ZM44.5833 43.6667C44.5833 44.2017 44.38 44.7333 43.9733 45.14L45.7417 46.9067C46.1681 46.4818 46.5046 45.9768 46.7351 45.4208C46.9657 44.8647 47.084 44.2686 47.0833 43.6667H44.5833ZM39.1667 42.4167H34.1667V44.9167H39.1667V42.4167ZM41.0267 45.14C40.8325 44.9471 40.6786 44.7175 40.5738 44.4645C40.4691 44.2116 40.4157 43.9404 40.4167 43.6667H37.9167C37.9167 44.8383 38.365 46.0133 39.2583 46.9083L41.0267 45.14ZM40.4167 43.6667C40.4167 43.1317 40.62 42.6 41.0267 42.1933L39.2583 40.4267C38.8319 40.8515 38.4954 41.3565 38.2649 41.9126C38.0343 42.4686 37.916 43.0647 37.9167 43.6667H40.4167ZM21.0267 45.14C20.8325 44.9471 20.6786 44.7175 20.5738 44.4645C20.4691 44.2116 20.4157 43.9404 20.4167 43.6667H17.9167C17.9167 44.8383 18.365 46.0133 19.2583 46.9083L21.0267 45.14ZM20.4167 43.6667C20.4167 43.1317 20.62 42.6 21.0267 42.1933L19.26 40.4267C18.8336 40.8515 18.4954 41.3565 18.2649 41.9126C18.0343 42.4686 17.916 43.0647 17.9167 43.6667H20.4167ZM34.1667 42.4167H25.8333V44.9167H34.1667V42.4167ZM23.9733 42.1933C24.38 42.6 24.5833 43.1317 24.5833 43.6667H27.0833C27.0833 42.495 26.635 41.32 25.7417 40.425L23.9733 42.1933ZM24.5833 43.6667C24.5833 44.2017 24.38 44.7333 23.9733 45.14L25.74 46.9067C26.1664 46.4818 26.5046 45.9768 26.7351 45.4208C26.9657 44.8647 27.084 44.2686 27.0833 43.6667H24.5833ZM47.9167 40.3333C47.9167 41.4833 46.9833 42.4167 45.8333 42.4167V44.9167C47.0489 44.9167 48.2147 44.4338 49.0742 43.5742C49.9338 42.7147 50.4167 41.5489 50.4167 40.3333H47.9167ZM42.5 28.25C43.9366 28.25 45.3143 28.8207 46.3302 29.8365C47.346 30.8523 47.9167 32.2301 47.9167 33.6667H50.4167C50.4167 31.567 49.5826 29.5534 48.0979 28.0687C46.6133 26.5841 44.5996 25.75 42.5 25.75V28.25ZM14.5833 40.3333C14.5833 41.5489 15.0662 42.7147 15.9258 43.5742C16.7853 44.4338 17.9511 44.9167 19.1667 44.9167V42.4167C18.0167 42.4167 17.0833 41.4833 17.0833 40.3333H14.5833Z" fill="#F4F4F4"/>
</svg>
