<svg width="72" height="72" viewBox="0 0 72 72" fill="none" xmlns="http://www.w3.org/2000/svg">
<g clip-path="url(#clip0_317_2714)">
<path d="M69.6 60V62.4H72V60H69.6ZM60 60H57.6V62.4H60V60ZM2.4 60H0V62.4H2.4V60ZM12 60V62.4H14.4V60H12ZM48 24V7.9392H43.2V24H48ZM67.2 16.8V60H72V16.8H67.2ZM69.6 57.6H60V62.4H69.6V57.6ZM60 28.8H52.8V33.6H60V28.8ZM51.1392 4.8H55.2V0H51.1392V4.8ZM52.8 28.8C51.527 28.8 50.3061 28.2943 49.4059 27.3941C48.5057 26.4939 48 25.273 48 24H43.2C43.2 26.5461 44.2114 28.9879 46.0118 30.7882C47.8121 32.5886 50.2539 33.6 52.8 33.6V28.8ZM72 16.8C72 12.3444 70.23 8.07122 67.0794 4.92061C63.9288 1.76999 59.6556 0 55.2 0V4.8C58.3826 4.8 61.4348 6.06428 63.6853 8.31472C65.9357 10.5652 67.2 13.6174 67.2 16.8H72ZM48 7.9392C48 6.2064 49.4064 4.8 51.1392 4.8V0C46.752 0 43.2 3.552 43.2 7.9392H48ZM62.4 60V72H67.2V60H62.4ZM28.8 24V7.9392H24V24H28.8ZM0 16.8V60H4.8V16.8H0ZM2.4 62.4H12V57.6H2.4V62.4ZM12 33.6H19.2V28.8H12V33.6ZM20.8608 0H16.8V4.8H20.8608V0ZM19.2 33.6C21.7461 33.6 24.1879 32.5886 25.9882 30.7882C27.7886 28.9879 28.8 26.5461 28.8 24H24C24 25.273 23.4943 26.4939 22.5941 27.3941C21.6939 28.2943 20.473 28.8 19.2 28.8V33.6ZM4.8 16.8C4.8 13.6174 6.06428 10.5652 8.31472 8.31472C10.5652 6.06428 13.6174 4.8 16.8 4.8V0C12.3444 0 8.07122 1.76999 4.92061 4.92061C1.76999 8.07122 0 12.3444 0 16.8H4.8ZM28.8 7.9392C28.8 3.552 25.248 0 20.8608 0V4.8C22.5936 4.8 24 6.2064 24 7.9392H28.8ZM4.8 60V72H9.6V60H4.8ZM57.6 19.2V31.2H62.4V19.2H57.6ZM9.6 19.2V31.2H14.4V19.2H9.6ZM62.4 60V31.2H57.6V60H62.4ZM14.4 60V31.2H9.6V60H14.4Z" fill="#272530"/>
</g>
<defs>
<clipPath id="clip0_317_2714">
<rect width="72" height="72" fill="white"/>
</clipPath>
</defs>
</svg>
