<svg width="72" height="72" viewBox="0 0 72 72" fill="none" xmlns="http://www.w3.org/2000/svg">
<path d="M57 9C58.5913 9 60.1174 9.63214 61.2426 10.7574C62.3679 11.8826 63 13.4087 63 15V48C63 49.5913 62.3679 51.1174 61.2426 52.2426C60.1174 53.3679 58.5913 54 57 54H45V57H48C48.7957 57 49.5587 57.3161 50.1213 57.8787C50.6839 58.4413 51 59.2043 51 60C51 60.7957 50.6839 61.5587 50.1213 62.1213C49.5587 62.6839 48.7957 63 48 63H24C23.2044 63 22.4413 62.6839 21.8787 62.1213C21.3161 61.5587 21 60.7957 21 60C21 59.2043 21.3161 58.4413 21.8787 57.8787C22.4413 57.3161 23.2044 57 24 57H27V54H15C13.4087 54 11.8826 53.3679 10.7574 52.2426C9.63214 51.1174 9 49.5913 9 48V15C9 13.4087 9.63214 11.8826 10.7574 10.7574C11.8826 9.63214 13.4087 9 15 9H57ZM39 54H33V57H39V54ZM57 15H15V48H57V15Z" fill="#272530"/>
</svg>
