<svg width="72" height="72" viewBox="0 0 72 72" fill="none" xmlns="http://www.w3.org/2000/svg">
<path d="M21.5367 70C19.6362 70 18.0107 69.3208 16.6601 67.9624C15.3095 66.6041 14.6328 64.9754 14.6299 63.0766V52.8415H6.90253C5.00487 52.8415 3.38074 52.1623 2.03016 50.804C0.679568 49.4456 0.00284934 47.8155 0 45.9138V29.742C0 27.3112 0.822034 25.2751 2.4661 23.6336C4.11017 21.9864 6.13748 21.1627 8.54802 21.1627H63.452C65.8739 21.1627 67.9041 21.9864 69.5424 23.6336C71.1808 25.2808 72 27.3169 72 29.742V45.9138C72 47.8184 71.3247 49.4485 69.9741 50.804C68.6235 52.1595 66.998 52.8387 65.0975 52.8415H57.3701V63.0723C57.3701 64.9769 56.6933 66.6069 55.3399 67.9624C53.9865 69.3179 52.3623 69.9971 50.4675 70H21.5367ZM6.90253 48.5519H14.6299C14.7411 46.7417 15.4562 45.1889 16.7755 43.8934C18.0947 42.6008 19.6818 41.9545 21.5367 41.9545H50.4675C52.3196 41.9545 53.9053 42.6022 55.2245 43.8977C56.5437 45.1903 57.2589 46.7417 57.3701 48.5519H65.0975C65.8639 48.5519 66.4936 48.3046 66.9866 47.8098C67.4795 47.3151 67.726 46.6831 67.726 45.9138V29.742C67.726 28.5294 67.3171 27.5114 66.4993 26.6878C65.6816 25.8642 64.6658 25.4524 63.452 25.4524H8.54802C7.33705 25.4524 6.32269 25.8642 5.50493 26.6878C4.68717 27.5114 4.27686 28.5309 4.27401 29.7463V45.9138C4.27401 46.6831 4.52048 47.3151 5.01342 47.8098C5.50635 48.3046 6.13606 48.5519 6.90253 48.5519ZM53.096 21.167V10.932C53.096 10.1599 52.8496 9.52788 52.3566 9.03601C51.8637 8.54127 51.234 8.2939 50.4675 8.2939H21.5325C20.766 8.2939 20.1363 8.54127 19.6434 9.03601C19.1504 9.53074 18.904 10.1627 18.904 10.932V21.1627H14.6299V10.932C14.6299 9.02743 15.3067 7.39595 16.6601 6.03757C18.0107 4.67919 19.6348 4 21.5325 4H50.4675C52.3652 4 53.9893 4.67919 55.3399 6.03757C56.6933 7.39595 57.3701 9.026 57.3701 10.9277V21.1627L53.096 21.167ZM60.0028 36.1807C61.2138 36.1807 62.2282 35.7689 63.0459 34.9453C63.8637 34.1217 64.274 33.1036 64.2769 31.8911C64.2797 30.6785 63.8694 29.659 63.0459 28.8326C62.2225 28.0061 61.2081 27.5943 60.0028 27.5972C58.7976 27.6 57.7818 28.0118 56.9555 28.8326C56.1292 29.6533 55.7203 30.6728 55.7288 31.8911C55.7374 33.1093 56.1463 34.1274 56.9555 34.9453C57.7647 35.7632 58.7805 36.175 60.0028 36.1807ZM53.096 63.068V48.8822C53.096 48.1101 52.8496 47.4767 52.3566 46.9819C51.8637 46.4872 51.234 46.2398 50.4675 46.2398H21.5325C20.766 46.2398 20.1363 46.4872 19.6434 46.9819C19.1504 47.4795 18.904 48.113 18.904 48.8822V63.0723C18.904 63.8415 19.1504 64.4735 19.6434 64.9683C20.1363 65.463 20.7674 65.7104 21.5367 65.7104H50.4675C51.234 65.7104 51.8637 65.463 52.3566 64.9683C52.8496 64.4735 53.096 63.8401 53.096 63.068ZM6.90253 25.4566H4.27401H67.726H6.90253Z" fill="#272530"/>
</svg>
