<svg width="72" height="72" viewBox="0 0 72 72" fill="none" xmlns="http://www.w3.org/2000/svg">
<path d="M21.351 0H50.649L52.158 12.075C54.3262 12.3563 56.3178 13.4172 57.7609 15.0597C59.204 16.7021 60 18.8137 60 21V27H63V45H60V51C60 53.1863 59.204 55.2979 57.7609 56.9403C56.3178 58.5828 54.3262 59.6437 52.158 59.925L50.649 72H21.351L19.842 59.925C17.6738 59.6437 15.6822 58.5828 14.2391 56.9403C12.796 55.2979 12 53.1863 12 51V21C12 18.8137 12.796 16.7021 14.2391 15.0597C15.6822 13.4172 17.6738 12.3563 19.842 12.075L21.351 0ZM25.899 12H46.101L45.351 6H26.649L25.899 12ZM21 54H51C51.7957 54 52.5587 53.6839 53.1213 53.1213C53.6839 52.5587 54 51.7957 54 51V21C54 20.2044 53.6839 19.4413 53.1213 18.8787C52.5587 18.3161 51.7957 18 51 18H21C20.2044 18 19.4413 18.3161 18.8787 18.8787C18.3161 19.4413 18 20.2044 18 21V51C18 51.7957 18.3161 52.5587 18.8787 53.1213C19.4413 53.6839 20.2044 54 21 54ZM25.899 60L26.649 66H45.351L46.101 60H25.899Z" fill="#272530"/>
</svg>
