<svg width="40" height="40" viewBox="0 0 40 40" fill="none" xmlns="http://www.w3.org/2000/svg">
<path fill-rule="evenodd" clip-rule="evenodd" d="M39.1667 19.9997C39.1667 30.5854 30.5858 39.1663 20 39.1663C9.41429 39.1663 0.833374 30.5854 0.833374 19.9997C0.833374 9.41393 9.41429 0.833008 20 0.833008C30.5858 0.833008 39.1667 9.41393 39.1667 19.9997ZM18.0834 12.333C18.0834 12.8413 18.2853 13.3289 18.6448 13.6883C19.0042 14.0477 19.4917 14.2497 20 14.2497H20.0154C20.5237 14.2497 21.0112 14.0477 21.3707 13.6883C21.7301 13.3289 21.932 12.8413 21.932 12.333C21.932 11.8247 21.7301 11.3372 21.3707 10.9777C21.0112 10.6183 20.5237 10.4163 20.0154 10.4163H20C19.4917 10.4163 19.0042 10.6183 18.6448 10.9777C18.2853 11.3372 18.0834 11.8247 18.0834 12.333ZM20 29.583C20.5084 29.583 20.9959 29.3811 21.3553 29.0216C21.7148 28.6622 21.9167 28.1747 21.9167 27.6663V18.083C21.9167 17.5747 21.7148 17.0872 21.3553 16.7277C20.9959 16.3683 20.5084 16.1663 20 16.1663C19.4917 16.1663 19.0042 16.3683 18.6448 16.7277C18.2853 17.0872 18.0834 17.5747 18.0834 18.083V27.6663C18.0834 28.1747 18.2853 28.6622 18.6448 29.0216C19.0042 29.3811 19.4917 29.583 20 29.583Z" fill="#6390FF"/>
</svg>
