<svg width="24" height="25" viewBox="0 0 24 25" fill="none" xmlns="http://www.w3.org/2000/svg">
<path d="M1.5 3.5H3.25L4 6.5M4 6.5L6.5 16.5H19.5L22 6.5H4Z" stroke="#272530" stroke-width="2" stroke-linecap="round" stroke-linejoin="round"/>
<path d="M6.5 21.5C7.32843 21.5 8 20.8284 8 20C8 19.1716 7.32843 18.5 6.5 18.5C5.67157 18.5 5 19.1716 5 20C5 20.8284 5.67157 21.5 6.5 21.5Z" stroke="#272530" stroke-width="2" stroke-linecap="round" stroke-linejoin="round"/>
<path d="M19.5 21.5C20.3284 21.5 21 20.8284 21 20C21 19.1716 20.3284 18.5 19.5 18.5C18.6716 18.5 18 19.1716 18 20C18 20.8284 18.6716 21.5 19.5 21.5Z" stroke="#272530" stroke-width="2" stroke-linecap="round" stroke-linejoin="round"/>
</svg>
