<svg width="26" height="25" viewBox="0 0 26 25" fill="none" xmlns="http://www.w3.org/2000/svg">
<path d="M12.5684 1.73535C12.7492 1.42509 13.1804 1.40538 13.3926 1.67676L13.4316 1.73535L16.8721 7.6416C17.0575 7.95997 17.3526 8.19746 17.6992 8.31152L17.8506 8.35254L24.5312 9.79883C24.8823 9.87499 25.0337 10.2797 24.8408 10.5654L24.7979 10.6211L20.2441 15.7178C19.9987 15.9924 19.8638 16.3462 19.8623 16.7109L19.8701 16.8682L20.5586 23.668C20.5948 24.0253 20.257 24.2951 19.9258 24.2002L19.8594 24.1768L13.6045 21.4199C13.2674 21.2715 12.8893 21.2529 12.542 21.3643L12.3955 21.4199L6.14062 24.1768C5.81176 24.3216 5.4512 24.0829 5.43945 23.7383L5.44141 23.668L6.12988 16.8682C6.16699 16.5015 6.06792 16.1359 5.85449 15.8398L5.75586 15.7178L1.20215 10.6211C0.962796 10.3532 1.07751 9.93625 1.40137 9.81836L1.46875 9.79883L8.14941 8.35254C8.50959 8.27449 8.82643 8.06695 9.04199 7.77246L9.12793 7.6416L12.5684 1.73535Z" fill="white" stroke="#DFDEDE"/>
</svg>
