<svg width="73" height="72" viewBox="0 0 73 72" fill="none" xmlns="http://www.w3.org/2000/svg">
<g clip-path="url(#clip0_0_50)">
<path d="M2.86366 58C2.40539 58 2.02134 57.8431 1.71152 57.5294C1.4017 57.2157 1.24787 56.8268 1.25002 56.3627C1.25217 55.8987 1.40601 55.5109 1.71152 55.1993C2.01704 54.8878 2.40108 54.7309 2.86366 54.7288H12.9198V52.2157C11.4331 52.2157 10.1928 51.7124 9.19879 50.7059C8.20479 49.6993 7.70672 48.4434 7.70457 46.9379V18.2778C7.70457 16.7745 8.20264 15.5196 9.19879 14.5131C10.1949 13.5065 11.4342 13.0022 12.9166 13H60.5834C62.068 13 63.3072 13.5044 64.3012 14.5131C65.2952 15.5218 65.7933 16.7767 65.7955 18.2778V46.9379C65.7955 48.4412 65.2974 49.6972 64.3012 50.7059C63.3051 51.7146 62.0658 52.2179 60.5834 52.2157V54.732H70.6364C71.0968 54.732 71.4808 54.8878 71.7885 55.1993C72.0962 55.5109 72.25 55.8987 72.25 56.3627C72.25 56.8268 72.0962 57.2157 71.7885 57.5294C71.4808 57.8431 71.0968 57.9989 70.6364 57.9967L2.86366 58ZM12.9198 48.9477H60.5834C61.1622 48.9477 61.6377 48.7593 62.0099 48.3824C62.3821 48.0054 62.5682 47.524 62.5682 46.9379V18.2778C62.5682 17.6917 62.3821 17.2102 62.0099 16.8333C61.6377 16.4564 61.1622 16.268 60.5834 16.268H12.9166C12.3379 16.268 11.8624 16.4564 11.4902 16.8333C11.1179 17.2102 10.9318 17.6917 10.9318 18.2778V46.9379C10.9318 47.524 11.1179 48.0054 11.4902 48.3824C11.8624 48.7593 12.3389 48.9477 12.9198 48.9477Z" fill="#272530"/>
</g>
<defs>
<clipPath id="clip0_0_50">
<rect width="72" height="72" fill="white" transform="translate(0.75)"/>
</clipPath>
</defs>
</svg>
