<svg width="73" height="72" viewBox="0 0 73 72" fill="none" xmlns="http://www.w3.org/2000/svg">
<g clip-path="url(#clip0_302_1212)">
<path d="M63.5 4.5H9.5C8.30653 4.5 7.16193 4.97411 6.31802 5.81802C5.47411 6.66193 5 7.80653 5 9V40.5C5 41.6935 5.47411 42.8381 6.31802 43.682C7.16193 44.5259 8.30653 45 9.5 45H32V63H20.75C20.1533 63 19.581 62.7629 19.159 62.341C18.7371 61.919 18.5 61.3467 18.5 60.75C18.5 60.1533 18.7371 59.581 19.159 59.159C19.581 58.7371 20.1533 58.5 20.75 58.5H27.5V49.5H9.5C4.55 49.5 0.5 45.4725 0.5 40.5V9C0.5 4.05 4.5275 0 9.5 0H63.5C68.45 0 72.5 4.0275 72.5 9H68C68 7.80653 67.5259 6.66193 66.682 5.81802C65.8381 4.97411 64.6935 4.5 63.5 4.5Z" fill="#272530"/>
<path d="M52.25 27C51.6533 27 51.081 27.2371 50.659 27.659C50.2371 28.081 50 28.6533 50 29.25C50 29.8467 50.2371 30.419 50.659 30.841C51.081 31.2629 51.6533 31.5 52.25 31.5H61.25C61.8467 31.5 62.419 31.2629 62.841 30.841C63.2629 30.419 63.5 29.8467 63.5 29.25C63.5 28.6533 63.2629 28.081 62.841 27.659C62.419 27.2371 61.8467 27 61.25 27H52.25ZM52.25 36C51.6533 36 51.081 36.2371 50.659 36.659C50.2371 37.081 50 37.6533 50 38.25C50 38.8467 50.2371 39.419 50.659 39.841C51.081 40.2629 51.6533 40.5 52.25 40.5H61.25C61.8467 40.5 62.419 40.2629 62.841 39.841C63.2629 39.419 63.5 38.8467 63.5 38.25C63.5 37.6533 63.2629 37.081 62.841 36.659C62.419 36.2371 61.8467 36 61.25 36H52.25ZM61.25 63C61.8467 63 62.419 62.7629 62.841 62.341C63.2629 61.919 63.5 61.3467 63.5 60.75C63.5 60.1533 63.2629 59.581 62.841 59.159C62.419 58.7371 61.8467 58.5 61.25 58.5C60.6533 58.5 60.081 58.7371 59.659 59.159C59.2371 59.581 59 60.1533 59 60.75C59 61.3467 59.2371 61.919 59.659 62.341C60.081 62.7629 60.6533 63 61.25 63Z" fill="#272530"/>
<path fill-rule="evenodd" clip-rule="evenodd" d="M41 28.8C41 25.02 41 23.13 41.7335 21.69C42.3815 20.421 43.412 19.386 44.6855 18.738C46.13 18.0045 48.02 18.0045 51.7955 18.0045H61.6955C65.4755 18.0045 67.3655 18.0045 68.8055 18.738C70.0745 19.386 71.1095 20.4165 71.7575 21.69C72.4955 23.1345 72.4955 25.0245 72.4955 28.8V61.2C72.4955 64.98 72.4955 66.87 71.7575 68.31C71.1102 69.5812 70.0767 70.6147 68.8055 71.262C67.361 72 65.471 72 61.6955 72H51.7955C48.0155 72 46.1255 72 44.6855 71.262C43.4143 70.6147 42.3808 69.5812 41.7335 68.31C41 66.8655 41 64.9755 41 61.2V28.8ZM51.8 22.5H61.7C63.662 22.5 64.868 22.5 65.768 22.5765C66.0957 22.6001 66.4209 22.6513 66.74 22.7295L66.776 22.743C67.1982 22.9585 67.5415 23.3018 67.757 23.724V23.7375L67.7705 23.76L67.811 23.904C67.847 24.057 67.8875 24.309 67.9235 24.732C67.9955 25.632 68 26.8335 68 28.8V61.2C68 63.162 68 64.368 67.9235 65.268C67.8999 65.5957 67.8487 65.9209 67.7705 66.24L67.7615 66.258L67.757 66.2715C67.5415 66.6937 67.1982 67.037 66.776 67.2525L66.758 67.2615L66.74 67.2705L66.596 67.311C66.3241 67.3741 66.0469 67.4118 65.768 67.4235C64.868 67.4955 63.6665 67.5 61.7 67.5H51.8C49.838 67.5 48.632 67.5 47.732 67.4235C47.4043 67.3999 47.0791 67.3487 46.76 67.2705L46.742 67.2615L46.7285 67.2525C46.3063 67.037 45.963 66.6937 45.7475 66.2715L45.7295 66.24L45.689 66.096C45.6259 65.8241 45.5882 65.5469 45.5765 65.268C45.5045 64.368 45.5 63.1665 45.5 61.2V28.8C45.5 26.8335 45.5 25.632 45.5765 24.732C45.6001 24.4043 45.6513 24.0791 45.7295 23.76L45.7385 23.7375L45.7475 23.724C45.963 23.3018 46.3063 22.9585 46.7285 22.743L46.76 22.7295L46.904 22.689C47.1759 22.6259 47.4531 22.5883 47.732 22.5765C48.632 22.5045 49.8335 22.5 51.8 22.5Z" fill="#272530"/>
</g>
<defs>
<clipPath id="clip0_302_1212">
<rect width="72" height="72" fill="white" transform="translate(0.5)"/>
</clipPath>
</defs>
</svg>
