<svg width="72" height="72" viewBox="0 0 72 72" fill="none" xmlns="http://www.w3.org/2000/svg">
<g clip-path="url(#clip0_317_1405)">
<path d="M49.5 4.5C50.6935 4.5 51.8381 4.97411 52.682 5.81802C53.5259 6.66193 54 7.80653 54 9V63C54 64.1935 53.5259 65.3381 52.682 66.182C51.8381 67.0259 50.6935 67.5 49.5 67.5H22.5C21.3065 67.5 20.1619 67.0259 19.318 66.182C18.4741 65.3381 18 64.1935 18 63V9C18 7.80653 18.4741 6.66193 19.318 5.81802C20.1619 4.97411 21.3065 4.5 22.5 4.5H49.5ZM22.5 0C20.1131 0 17.8239 0.948212 16.136 2.63604C14.4482 4.32387 13.5 6.61305 13.5 9V63C13.5 65.3869 14.4482 67.6761 16.136 69.364C17.8239 71.0518 20.1131 72 22.5 72H49.5C51.8869 72 54.1761 71.0518 55.864 69.364C57.5518 67.6761 58.5 65.3869 58.5 63V9C58.5 6.61305 57.5518 4.32387 55.864 2.63604C54.1761 0.948212 51.8869 0 49.5 0L22.5 0Z" fill="#272530"/>
<path d="M36 63C37.1935 63 38.3381 62.5259 39.182 61.682C40.0259 60.8381 40.5 59.6935 40.5 58.5C40.5 57.3065 40.0259 56.1619 39.182 55.318C38.3381 54.4741 37.1935 54 36 54C34.8065 54 33.6619 54.4741 32.818 55.318C31.9741 56.1619 31.5 57.3065 31.5 58.5C31.5 59.6935 31.9741 60.8381 32.818 61.682C33.6619 62.5259 34.8065 63 36 63Z" fill="#272530"/>
</g>
<defs>
<clipPath id="clip0_317_1405">
<rect width="72" height="72" fill="white"/>
</clipPath>
</defs>
</svg>
